# Blender 4.0.2
# www.blender.org
mtllib Cone.mtl
o Конус
v 0.000000 -1.000500 0.000000
v 0.000000 -1.000500 -1.000000
v 0.195090 -1.000500 -0.980785
v 0.382683 -1.000500 -0.923880
v 0.555570 -1.000500 -0.831470
v 0.707107 -1.000500 -0.707107
v 0.831470 -1.000500 -0.555570
v 0.923880 -1.000500 -0.382683
v 0.980785 -1.000500 -0.195090
v 1.000000 -1.000500 0.000000
v 0.980785 -1.000500 0.195090
v 0.923880 -1.000500 0.382683
v 0.831470 -1.000500 0.555570
v 0.707107 -1.000500 0.707107
v 0.555570 -1.000500 0.831470
v 0.382683 -1.000500 0.923880
v 0.195090 -1.000500 0.980785
v 0.000000 -1.000500 1.000000
v -0.195090 -1.000500 0.980785
v -0.382683 -1.000500 0.923880
v -0.555570 -1.000500 0.831470
v -0.707107 -1.000500 0.707107
v -0.831470 -1.000500 0.555570
v -0.923880 -1.000500 0.382683
v -0.980785 -1.000500 0.195090
v -1.000000 -1.000500 0.000000
v -0.980785 -1.000500 -0.195090
v -0.923880 -1.000500 -0.382683
v -0.831470 -1.000500 -0.555570
v -0.707107 -1.000500 -0.707107
v -0.555570 -1.000500 -0.831470
v -0.382683 -1.000500 -0.923880
v -0.195090 -1.000500 -0.980785
v 0.000000 1.000500 0.000000
vn -0.0000 -1.0000 -0.0000
vn 0.0878 0.4453 -0.8911
vn 0.2599 0.4453 -0.8568
vn 0.4221 0.4453 -0.7897
vn 0.5680 0.4453 -0.6921
vn 0.6921 0.4453 -0.5680
vn 0.7897 0.4453 -0.4221
vn 0.8568 0.4453 -0.2599
vn 0.8911 0.4453 -0.0878
vn 0.8911 0.4453 0.0878
vn 0.8568 0.4453 0.2599
vn 0.7897 0.4453 0.4221
vn 0.6921 0.4453 0.5680
vn 0.5680 0.4453 0.6921
vn 0.4221 0.4453 0.7897
vn 0.2599 0.4453 0.8568
vn 0.0878 0.4453 0.8911
vn -0.0878 0.4453 0.8911
vn -0.2599 0.4453 0.8568
vn -0.4221 0.4453 0.7897
vn -0.5680 0.4453 0.6921
vn -0.6921 0.4453 0.5680
vn -0.7897 0.4453 0.4221
vn -0.8568 0.4453 0.2599
vn -0.8911 0.4453 0.0878
vn -0.8911 0.4453 -0.0878
vn -0.8568 0.4453 -0.2599
vn -0.7897 0.4453 -0.4221
vn -0.6921 0.4453 -0.5680
vn -0.5680 0.4453 -0.6921
vn -0.4221 0.4453 -0.7897
vn -0.2599 0.4453 -0.8568
vn -0.0878 0.4453 -0.8911
vt 0.504315 0.631364
vt 0.504315 0.740668
vt 0.532849 0.738568
vt 0.166005 0.483686
vt 0.166005 0.374495
vt 0.194381 0.481588
vt 0.560287 0.732348
vt 0.221667 0.475374
vt 0.585573 0.722247
vt 0.246813 0.465284
vt 0.607737 0.708654
vt 0.268854 0.451705
vt 0.625926 0.692090
vt 0.286943 0.435158
vt 0.639442 0.673193
vt 0.300384 0.416281
vt 0.647765 0.652689
vt 0.308661 0.395797
vt 0.650576 0.631364
vt 0.311456 0.374495
vt 0.647765 0.610040
vt 0.308661 0.353193
vt 0.639442 0.589536
vt 0.300384 0.332709
vt 0.625926 0.570638
vt 0.286943 0.313832
vt 0.607737 0.554075
vt 0.268854 0.297285
vt 0.585573 0.540482
vt 0.246813 0.283706
vt 0.560287 0.530381
vt 0.221667 0.273616
vt 0.532849 0.524161
vt 0.194381 0.267402
vt 0.504315 0.522060
vt 0.166005 0.265304
vt 0.475782 0.524161
vt 0.137629 0.267402
vt 0.448344 0.530381
vt 0.110344 0.273616
vt 0.423058 0.540482
vt 0.085197 0.283706
vt 0.400894 0.554075
vt 0.063156 0.297285
vt 0.382704 0.570638
vt 0.045067 0.313832
vt 0.369189 0.589536
vt 0.031626 0.332709
vt 0.360866 0.610040
vt 0.023349 0.353193
vt 0.358055 0.631364
vt 0.020555 0.374495
vt 0.360866 0.652689
vt 0.023349 0.395797
vt 0.369189 0.673193
vt 0.031626 0.416281
vt 0.382704 0.692090
vt 0.045067 0.435158
vt 0.400894 0.708654
vt 0.063156 0.451705
vt 0.423058 0.722247
vt 0.085197 0.465284
vt 0.448344 0.732348
vt 0.110344 0.475374
vt 0.475782 0.738568
vt 0.137629 0.481588
s 0
usemtl Материал.001
f 1/1/1 2/2/1 3/3/1
f 2/4/2 34/5/2 3/6/2
f 1/1/1 3/3/1 4/7/1
f 3/6/3 34/5/3 4/8/3
f 1/1/1 4/7/1 5/9/1
f 4/8/4 34/5/4 5/10/4
f 1/1/1 5/9/1 6/11/1
f 5/10/5 34/5/5 6/12/5
f 1/1/1 6/11/1 7/13/1
f 6/12/6 34/5/6 7/14/6
f 1/1/1 7/13/1 8/15/1
f 7/14/7 34/5/7 8/16/7
f 1/1/1 8/15/1 9/17/1
f 8/16/8 34/5/8 9/18/8
f 1/1/1 9/17/1 10/19/1
f 9/18/9 34/5/9 10/20/9
f 1/1/1 10/19/1 11/21/1
f 10/20/10 34/5/10 11/22/10
f 1/1/1 11/21/1 12/23/1
f 11/22/11 34/5/11 12/24/11
f 1/1/1 12/23/1 13/25/1
f 12/24/12 34/5/12 13/26/12
f 1/1/1 13/25/1 14/27/1
f 13/26/13 34/5/13 14/28/13
f 1/1/1 14/27/1 15/29/1
f 14/28/14 34/5/14 15/30/14
f 1/1/1 15/29/1 16/31/1
f 15/30/15 34/5/15 16/32/15
f 1/1/1 16/31/1 17/33/1
f 16/32/16 34/5/16 17/34/16
f 1/1/1 17/33/1 18/35/1
f 17/34/17 34/5/17 18/36/17
f 1/1/1 18/35/1 19/37/1
f 18/36/18 34/5/18 19/38/18
f 1/1/1 19/37/1 20/39/1
f 19/38/19 34/5/19 20/40/19
f 1/1/1 20/39/1 21/41/1
f 20/40/20 34/5/20 21/42/20
f 1/1/1 21/41/1 22/43/1
f 21/42/21 34/5/21 22/44/21
f 1/1/1 22/43/1 23/45/1
f 22/44/22 34/5/22 23/46/22
f 1/1/1 23/45/1 24/47/1
f 23/46/23 34/5/23 24/48/23
f 1/1/1 24/47/1 25/49/1
f 24/48/24 34/5/24 25/50/24
f 1/1/1 25/49/1 26/51/1
f 25/50/25 34/5/25 26/52/25
f 1/1/1 26/51/1 27/53/1
f 26/52/26 34/5/26 27/54/26
f 1/1/1 27/53/1 28/55/1
f 27/54/27 34/5/27 28/56/27
f 1/1/1 28/55/1 29/57/1
f 28/56/28 34/5/28 29/58/28
f 1/1/1 29/57/1 30/59/1
f 29/58/29 34/5/29 30/60/29
f 1/1/1 30/59/1 31/61/1
f 30/60/30 34/5/30 31/62/30
f 1/1/1 31/61/1 32/63/1
f 31/62/31 34/5/31 32/64/31
f 1/1/1 32/63/1 33/65/1
f 32/64/32 34/5/32 33/66/32
f 1/1/1 33/65/1 2/2/1
f 33/66/33 34/5/33 2/4/33
